<svg width="512" height="512" viewBox="0 0 512 512" fill="none" xmlns="http://www.w3.org/2000/svg">
<circle cx="256" cy="256" r="256" fill="#FA8112"/>
<ellipse cx="256" cy="273.208" rx="193" ry="175.148" fill="#D9D9D9"/>
<path d="M268.093 129.694L102.957 163.529C102.957 163.529 77.6258 186.358 76.1783 224.294C75.4847 242.72 78.5606 279.359 112.034 310.631C138.059 334.937 181.605 354.539 254.13 356.107C321.439 357.555 366.281 336.023 393.271 313.195C429.308 282.737 434.947 246.157 434.193 221.972C432.987 183.734 402.68 162.263 399.996 158.915C397.312 155.568 268.093 129.694 268.093 129.694Z" fill="#D4D4D3"/>
<path d="M253.256 340.396C373.398 340.396 429.398 274.444 428.072 213.468C426.715 151.587 341.463 107.559 255.518 109.127C105.55 111.841 84.7728 181.864 83.8681 219.801C82.8127 264.523 123.614 340.396 253.256 340.396Z" fill="#FAF3E1"/>
<path d="M99.2177 207.135C90.6533 242.84 117.281 323.689 255.065 323.689C382.897 323.689 415.858 250.078 415.858 214.373C415.858 177.793 381.54 113.651 250.089 120.858C124.489 127.764 103.832 187.926 99.2177 207.135Z" fill="#DF7F14"/>
<path d="M342.699 160.031C344.056 162.715 353.887 165.278 361.306 167.088C368.724 168.897 378.826 170.887 380.998 166.726C383.169 162.564 376.112 151.919 367.638 147.396C359.134 142.872 351.113 147.667 349.213 149.205C346.318 151.557 340.709 156.081 342.699 160.031Z" fill="#FF5119"/>
<path d="M111.401 207.768C106.817 207.768 101.51 218.625 106.063 229.27C110.617 239.915 116.708 243.715 118.819 249.233C120.9 254.752 123.192 268.051 132.691 277.399C142.19 286.717 155.911 288.044 161.611 289.944C167.31 291.844 182.539 304.238 207.087 308.008C234.288 312.199 271.953 304.962 271.38 299.262C270.807 293.593 230.85 288.406 223.431 286.717C216.013 285.029 188.993 280.626 169.421 270.373C153.228 261.869 140.14 252.49 126.238 231.743C116.286 216.876 114.055 207.768 111.401 207.768Z" fill="#F5B03E"/>
<path d="M196.532 84.7611L179.946 98.9345L154.705 108.494L147.377 130.176C147.377 130.176 135.315 138.53 134.802 141.696C134.32 144.862 127.142 171.159 127.142 171.159C127.142 171.159 125.273 181.382 125.423 185.996C125.574 190.61 142.522 225.41 198.854 235.301C255.186 245.192 291.313 232.979 315.951 219.107C339.322 205.929 343.574 191.816 343.574 191.816L342.367 167.027C342.367 167.027 334.768 137.957 331.843 131.443C328.918 124.929 306.904 100.895 305.517 100.503C304.129 100.111 275.782 82.5295 275.782 82.5295L234.287 73.9953L196.532 84.7611ZM110.798 220.917C107.903 222.304 109.652 228.486 113.451 234.004C117.251 239.523 120.508 241.935 123.282 250.379C126.057 258.823 131.847 273.419 142.432 279.48C153.016 285.541 159.319 280.475 159.56 277.218C159.922 272.333 153.77 271.941 142.793 260.964C131.756 249.927 123.765 236.266 119.603 229.722C117.1 225.742 113.693 219.529 110.798 220.917ZM180.82 280.355C177.051 278.093 171.382 284.124 176.146 292.809C180.941 301.494 189.113 299.474 189.626 296.458C190.44 291.542 185.736 290.547 184.198 287.502C182.72 284.516 184.892 282.797 180.82 280.355Z" fill="#FEFEFE"/>
<path d="M151.81 133.313C151.81 133.313 142.673 136.389 139.446 145.556C136.189 154.724 136.159 166.877 136.159 166.877C136.159 166.877 130.55 171.008 128.168 177.25C125.665 183.824 126.6 188.891 125.574 188.68C123.282 188.197 121.684 178.095 122.468 173.059C123.493 166.605 126.268 164.072 126.268 164.072C126.268 164.072 124.338 149.929 129.555 139.585C134.742 129.242 143.397 124.055 143.397 124.055C143.397 124.055 146.684 109.972 155.218 102.945C163.752 95.9189 173.432 94.7428 173.432 94.7428C173.432 94.7428 176.9 84.3088 187.726 78.3077C198.583 72.3066 210.434 75.2016 210.434 75.2016C210.434 75.2016 221.23 66.3658 236.097 66.3658C250.934 66.3658 258.02 74.1159 258.02 74.1159C258.02 74.1159 270.746 72.1558 280.155 76.9808C289.564 81.8058 294.902 90.0988 294.902 90.0988C294.902 90.0988 305.004 91.9081 312.513 99.2361C320.414 106.926 323.46 116.455 323.46 116.455C323.46 116.455 337.03 123.934 341.614 135.152C347.193 148.843 343.574 162.353 343.574 162.353C343.574 162.353 349.273 169.38 348.338 179.602C347.434 189.825 342.368 199.053 340.257 198.36C339.804 198.209 342.096 184.548 340.196 177.672C338.658 172.094 332.748 163.62 332.748 163.62C332.748 163.62 333.592 147.878 328.616 138.952C323.64 130.056 314.443 127.131 314.443 127.131C314.443 127.131 310.854 115.43 304.009 109.308C297.163 103.156 289.293 102.674 289.293 102.674C289.293 102.674 282.326 92.1192 274.245 89.0734C266.163 86.0277 257.749 87.4148 257.749 87.4148C257.749 87.4148 246.712 80.3884 235.795 80.4488C223.763 80.5091 214.927 88.3798 214.927 88.3798C214.927 88.3798 204.644 84.942 194.873 91.6066C185.103 98.3013 182.389 106.082 182.389 106.082C182.389 106.082 170.99 107.016 163.601 113.47C156.213 119.923 151.81 133.313 151.81 133.313Z" fill="#B0B0B0"/>
<path d="M283.683 120.134C278.376 120.225 278.044 127.553 275.511 131.986C273.249 135.936 264.745 137.896 268.123 143.536C271.138 148.572 282.296 145.888 286.548 136.992C289.534 130.78 290.438 120.044 283.683 120.134ZM305.697 146.793C300.571 147.335 302.591 154.151 300.842 159.398C299.093 164.645 292.549 169.44 296.198 173.028C299.847 176.617 308.351 170.767 310.915 161.237C313.478 151.708 309.889 146.34 305.697 146.793ZM277.863 165.881C272.043 165.761 273.159 171.883 269.631 177.069C266.102 182.226 261.338 184.066 263.599 187.715C265.861 191.363 274.305 191.997 279.431 182.437C284.317 173.27 282.296 165.972 277.863 165.881ZM282.899 201.466C278.858 208.01 271.983 207.316 274.154 212.865C276.386 218.564 286.548 216.182 291.464 208.673C295.595 202.31 298.822 191.635 291.705 191.303C285.764 191.062 286.186 196.158 282.899 201.466ZM244.299 197.485C240.077 197.907 240.047 203.155 237.032 207.045C233.534 211.598 226.899 212.443 229.221 217.871C231.543 223.299 241.827 222.605 247.345 214.855C251.989 208.372 252.321 196.701 244.299 197.485Z" fill="#222222"/>
<path d="M129.193 206.472C126.388 207.316 123.071 215.85 123.765 218.926C124.67 222.907 133.505 231.019 138.572 230.838C143.638 230.657 154.283 223.962 155.369 221.278C156.454 218.564 155.55 212.774 154.283 211.176C153.016 209.548 148.674 205.024 146.141 205.024C143.608 205.024 132.812 205.386 129.193 206.472Z" fill="#FF8E00"/>
<path d="M141.105 232.285C138.27 236.537 141.828 242.026 144.723 245.464C147.618 248.902 154.464 257.858 167.672 256.471C183.384 254.842 188.812 238.769 188.812 231.893C188.812 225.018 186.641 220.705 181.393 221.791C174.548 223.208 174.518 227.943 166.949 229.752C159.349 231.562 145.085 226.345 141.105 232.285Z" fill="#FCC219"/>
<path d="M186.822 250.892C186.339 255.204 186.279 264.613 190.259 266.06C194.24 267.508 210.856 266.241 213.751 265.337C216.646 264.432 217.732 258.099 215.922 255.596C214.113 253.063 201.658 243.142 196.592 243.323C191.526 243.504 187.003 249.263 186.822 250.892Z" fill="#FF8E00"/>
<path d="M222.044 271.127C225.301 272.755 228.196 285.029 227.291 287.924C226.387 290.819 223.13 296.428 221.501 296.94C219.873 297.483 205.428 297.664 199.457 296.76C194.27 295.975 188.45 289.884 188.993 281.953C189.536 273.992 195.326 271.127 203.8 270.403C212.273 269.679 222.044 271.127 222.044 271.127ZM241.555 242.056C236.368 242.87 225.844 251.254 225.482 258.31C225.12 265.367 230.548 270.584 234.86 270.584C239.203 270.584 256.181 253.063 255.095 249.806C254.01 246.549 248.401 240.97 241.555 242.056Z" fill="#FF5319"/>
<path d="M254.01 259.215C256.694 262.502 267.731 269.136 273.883 268.081C280.035 267.025 295.022 260.843 293.575 252.008C292.127 243.142 279.311 232.316 274.245 230.506C269.178 228.697 260.885 229.963 257.267 233.22C253.648 236.447 250.753 255.234 254.01 259.215Z" fill="#F8C977"/>
<path d="M310.372 238.799C305.999 238.92 303.496 244.227 302.772 246.037C302.049 247.846 300.42 253.998 298.43 257.948C296.439 261.929 287.242 272.031 290.649 277.46C294.087 282.888 301.295 281.802 310.522 280.355C319.72 278.907 326.777 274.926 327.862 266.633C328.948 258.31 329.672 251.646 327.5 249.113C325.359 246.549 317.217 238.618 310.372 238.799Z" fill="#FCC219"/>
<path d="M289.594 292.99C293.394 290.819 308.02 279.45 313.448 279.631C318.876 279.812 323.912 283.792 325.359 287.049C326.807 290.306 327.35 299.504 324.274 302.037C321.198 304.57 311.095 306.017 306.753 306.379C302.41 306.741 287.031 308.52 285.975 301.313C285.071 295.161 289.594 292.99 289.594 292.99Z" fill="#FF8E00"/>
<path d="M342.156 266.965C341.975 275.469 356.239 281.048 360.582 281.229C364.924 281.41 374.484 279.058 379.55 272.363C382.867 267.96 385.883 260.994 384.074 256.652C382.264 252.309 379.912 248.51 373.609 247.967C367.277 247.424 353.555 246.881 349.937 249.414C346.318 251.977 342.217 263.919 342.156 266.965Z" fill="#FF5119"/>
<path d="M337.995 222.183C336.336 225.048 339.322 234.517 343.242 238.618C346.499 242.056 351.384 245.856 361.487 244.77C371.589 243.685 381.179 236.99 383.35 233.763C385.521 230.506 388.597 223.842 386.788 220.585C384.978 217.328 368.724 219.318 361.306 219.318C353.887 219.318 339.985 218.745 337.995 222.183Z" fill="#F5E7C6"/>
<path d="M375.027 176.466C374.695 179.723 380.817 185.151 383.35 186.93C385.883 188.74 393.271 190.73 395.804 189.102C398.338 187.473 398.73 177.431 397.614 174.657C396.166 171.038 389.653 167.238 385.521 168.143C381.36 169.078 375.389 173.059 375.027 176.466Z" fill="#F9CA76"/>
<path d="M370.141 178.818C365.256 181.894 358.23 192.54 356.42 195.796C354.611 199.053 350.811 206.623 357.325 209.156C363.839 211.689 376.293 209.518 380.817 207.346C385.34 205.175 393.995 200.652 394.176 194.892C394.357 189.132 390.195 184.97 385.159 181.713C380.123 178.457 375.298 175.592 370.141 178.818Z" fill="#FF8E00"/>
<path d="M388.386 215.85C391.221 219.137 395.081 218.745 400.84 217.66C406.63 216.574 414.2 214.041 413.476 208.794C412.752 203.547 406.781 199.777 403.916 198.51C401.021 197.244 391.1 197.787 388.205 201.406C385.34 205.024 386.064 213.136 388.386 215.85Z" fill="#FCC219"/>
</svg>
